<svg xmlns="http://www.w3.org/2000/svg" viewBox="0 0 19 19"
     shape-rendering="crispEdges" role="img" aria-labelledby="t d">
  <title id="t">BigMoeOnEdge logo - chip-buddy</title>
  <desc id="d">A pixel chip character with cyan eyes and a small mouth</desc>
  <rect x="5" y="2" width="3" height="1" fill="#0A0512"/>
  <rect x="10" y="2" width="3" height="1" fill="#0A0512"/>
  <rect x="5" y="3" width="1" height="1" fill="#0A0512"/>
  <rect x="6" y="3" width="1" height="1" fill="#FFC53D"/>
  <rect x="7" y="3" width="1" height="1" fill="#0A0512"/>
  <rect x="8" y="3" width="1" height="1" fill="#2A1150"/>
  <rect x="10" y="3" width="1" height="1" fill="#0A0512"/>
  <rect x="11" y="3" width="1" height="1" fill="#FFC53D"/>
  <rect x="12" y="3" width="1" height="1" fill="#0A0512"/>
  <rect x="13" y="3" width="1" height="1" fill="#2A1150"/>
  <rect x="3" y="4" width="3" height="1" fill="#0A0512"/>
  <rect x="6" y="4" width="1" height="1" fill="#FFC53D"/>
  <rect x="7" y="4" width="4" height="1" fill="#0A0512"/>
  <rect x="11" y="4" width="1" height="1" fill="#FFC53D"/>
  <rect x="12" y="4" width="3" height="1" fill="#0A0512"/>
  <rect x="3" y="5" width="1" height="1" fill="#0A0512"/>
  <rect x="4" y="5" width="10" height="1" fill="#6C5AA8"/>
  <rect x="14" y="5" width="1" height="1" fill="#0A0512"/>
  <rect x="15" y="5" width="1" height="1" fill="#2A1150"/>
  <rect x="1" y="6" width="3" height="1" fill="#0A0512"/>
  <rect x="4" y="6" width="1" height="1" fill="#6C5AA8"/>
  <rect x="5" y="6" width="8" height="1" fill="#3B2A63"/>
  <rect x="13" y="6" width="1" height="1" fill="#6C5AA8"/>
  <rect x="14" y="6" width="3" height="1" fill="#0A0512"/>
  <rect x="1" y="7" width="1" height="1" fill="#0A0512"/>
  <rect x="2" y="7" width="1" height="1" fill="#FFC53D"/>
  <rect x="3" y="7" width="1" height="1" fill="#0A0512"/>
  <rect x="4" y="7" width="1" height="1" fill="#6C5AA8"/>
  <rect x="5" y="7" width="1" height="1" fill="#F2ECFF"/>
  <rect x="6" y="7" width="2" height="1" fill="#21E6FF"/>
  <rect x="8" y="7" width="2" height="1" fill="#3B2A63"/>
  <rect x="10" y="7" width="1" height="1" fill="#F2ECFF"/>
  <rect x="11" y="7" width="2" height="1" fill="#21E6FF"/>
  <rect x="13" y="7" width="1" height="1" fill="#6C5AA8"/>
  <rect x="14" y="7" width="1" height="1" fill="#0A0512"/>
  <rect x="15" y="7" width="1" height="1" fill="#FFC53D"/>
  <rect x="16" y="7" width="1" height="1" fill="#0A0512"/>
  <rect x="17" y="7" width="1" height="1" fill="#2A1150"/>
  <rect x="1" y="8" width="1" height="1" fill="#0A0512"/>
  <rect x="2" y="8" width="1" height="1" fill="#FFC53D"/>
  <rect x="3" y="8" width="1" height="1" fill="#0A0512"/>
  <rect x="4" y="8" width="1" height="1" fill="#6C5AA8"/>
  <rect x="5" y="8" width="3" height="1" fill="#21E6FF"/>
  <rect x="8" y="8" width="2" height="1" fill="#3B2A63"/>
  <rect x="10" y="8" width="3" height="1" fill="#21E6FF"/>
  <rect x="13" y="8" width="1" height="1" fill="#6C5AA8"/>
  <rect x="14" y="8" width="1" height="1" fill="#0A0512"/>
  <rect x="15" y="8" width="1" height="1" fill="#FFC53D"/>
  <rect x="16" y="8" width="1" height="1" fill="#0A0512"/>
  <rect x="17" y="8" width="1" height="1" fill="#2A1150"/>
  <rect x="1" y="9" width="3" height="1" fill="#0A0512"/>
  <rect x="4" y="9" width="1" height="1" fill="#6C5AA8"/>
  <rect x="5" y="9" width="3" height="1" fill="#21E6FF"/>
  <rect x="8" y="9" width="2" height="1" fill="#3B2A63"/>
  <rect x="10" y="9" width="3" height="1" fill="#21E6FF"/>
  <rect x="13" y="9" width="1" height="1" fill="#6C5AA8"/>
  <rect x="14" y="9" width="3" height="1" fill="#0A0512"/>
  <rect x="17" y="9" width="1" height="1" fill="#2A1150"/>
  <rect x="2" y="10" width="1" height="1" fill="#2A1150"/>
  <rect x="3" y="10" width="1" height="1" fill="#0A0512"/>
  <rect x="4" y="10" width="1" height="1" fill="#6C5AA8"/>
  <rect x="5" y="10" width="8" height="1" fill="#3B2A63"/>
  <rect x="13" y="10" width="1" height="1" fill="#6C5AA8"/>
  <rect x="14" y="10" width="1" height="1" fill="#0A0512"/>
  <rect x="15" y="10" width="3" height="1" fill="#2A1150"/>
  <rect x="3" y="11" width="1" height="1" fill="#0A0512"/>
  <rect x="4" y="11" width="1" height="1" fill="#6C5AA8"/>
  <rect x="5" y="11" width="3" height="1" fill="#3B2A63"/>
  <rect x="8" y="11" width="2" height="1" fill="#FF3E9E"/>
  <rect x="10" y="11" width="3" height="1" fill="#3B2A63"/>
  <rect x="13" y="11" width="1" height="1" fill="#6C5AA8"/>
  <rect x="14" y="11" width="1" height="1" fill="#0A0512"/>
  <rect x="15" y="11" width="1" height="1" fill="#2A1150"/>
  <rect x="3" y="12" width="1" height="1" fill="#0A0512"/>
  <rect x="4" y="12" width="1" height="1" fill="#6C5AA8"/>
  <rect x="5" y="12" width="8" height="1" fill="#3B2A63"/>
  <rect x="13" y="12" width="1" height="1" fill="#6C5AA8"/>
  <rect x="14" y="12" width="1" height="1" fill="#0A0512"/>
  <rect x="15" y="12" width="1" height="1" fill="#2A1150"/>
  <rect x="3" y="13" width="1" height="1" fill="#0A0512"/>
  <rect x="4" y="13" width="10" height="1" fill="#6C5AA8"/>
  <rect x="14" y="13" width="1" height="1" fill="#0A0512"/>
  <rect x="15" y="13" width="1" height="1" fill="#2A1150"/>
  <rect x="3" y="14" width="3" height="1" fill="#0A0512"/>
  <rect x="6" y="14" width="1" height="1" fill="#FFC53D"/>
  <rect x="7" y="14" width="4" height="1" fill="#0A0512"/>
  <rect x="11" y="14" width="1" height="1" fill="#FFC53D"/>
  <rect x="12" y="14" width="3" height="1" fill="#0A0512"/>
  <rect x="15" y="14" width="1" height="1" fill="#2A1150"/>
  <rect x="4" y="15" width="1" height="1" fill="#2A1150"/>
  <rect x="5" y="15" width="1" height="1" fill="#0A0512"/>
  <rect x="6" y="15" width="1" height="1" fill="#FFC53D"/>
  <rect x="7" y="15" width="1" height="1" fill="#0A0512"/>
  <rect x="8" y="15" width="2" height="1" fill="#2A1150"/>
  <rect x="10" y="15" width="1" height="1" fill="#0A0512"/>
  <rect x="11" y="15" width="1" height="1" fill="#FFC53D"/>
  <rect x="12" y="15" width="1" height="1" fill="#0A0512"/>
  <rect x="13" y="15" width="3" height="1" fill="#2A1150"/>
  <rect x="5" y="16" width="3" height="1" fill="#0A0512"/>
  <rect x="8" y="16" width="1" height="1" fill="#2A1150"/>
  <rect x="10" y="16" width="3" height="1" fill="#0A0512"/>
  <rect x="13" y="16" width="1" height="1" fill="#2A1150"/>
  <rect x="6" y="17" width="3" height="1" fill="#2A1150"/>
  <rect x="11" y="17" width="3" height="1" fill="#2A1150"/>
</svg>
